<svg width="647" height="362" viewBox="0 0 647 362" fill="none" xmlns="http://www.w3.org/2000/svg">
<path d="M402.42 14.2952C401.923 9.31993 401.923 9.31995 401.923 9.32001L401.92 9.32025L401.91 9.32125L401.87 9.32522L401.712 9.34099L401.094 9.40258C400.551 9.45655 399.753 9.53574 398.735 9.63654C396.697 9.83815 393.775 10.1262 390.238 10.4719C383.163 11.1633 373.629 12.085 363.789 13.0066C343.91 14.8683 323.323 16.6744 318.703 16.6743C314.082 16.6743 293.496 14.8682 273.617 13.0065C263.776 12.085 254.242 11.1633 247.167 10.4719C243.63 10.1262 240.708 9.83814 238.671 9.63654C237.652 9.53574 236.854 9.45655 236.312 9.40258L235.693 9.34099L235.535 9.32522L235.521 9.32366C235.479 9.31874 235.422 9.31233 235.352 9.30472C235.211 9.28951 235.014 9.26949 234.765 9.24697C234.266 9.20195 233.556 9.14685 232.657 9.10013C230.86 9.00674 228.303 8.94649 225.172 9.06835C218.922 9.31161 210.316 10.2832 200.879 13.209C181.878 19.0998 159.634 32.9024 146.653 64.0242C144.768 68.5434 142.525 73.8087 140.025 79.6778C126.314 111.865 104.867 162.214 92.2812 207.267C84.8693 233.798 80.3118 259.205 82.5909 278.232C83.7366 287.796 86.6721 296.309 92.3953 302.467C98.2512 308.769 106.456 312 116.795 312H117.23H117.668H118.111H118.557H119.007H119.46H119.918H120.379H120.844H121.313H121.785H122.261H122.74H123.224H123.711H124.201H124.695H125.193H125.694H126.199H126.707H127.219H127.735H128.254H128.776H129.302H129.831H130.364H130.9H131.44H131.983H132.529H133.079H133.632H134.189H134.749H135.312H135.878H136.448H137.021H137.598H138.177H138.76H139.346H139.935H140.527H141.123H141.722H142.324H142.929H143.537H144.148H144.762H145.38H146H146.623H147.25H147.879H148.512H149.147H149.786H150.427H151.072H151.719H152.369H153.023H153.679H154.337H154.999H155.664H156.331H157.002H157.675H158.35H159.029H159.71H160.395H161.081H161.771H162.463H163.158H163.856H164.556H165.259H165.965H166.673H167.384H168.097H168.813H169.531H170.252H170.976H171.702H172.431H173.162H173.895H174.631H175.37H176.111H176.854H177.6H178.348H179.098H179.851H180.606H181.364H182.124H182.886H183.65H184.417H185.186H185.957H186.73H187.506H188.284H189.064H189.846H190.63H191.417H192.205H192.996H193.789H194.584H195.381H196.18H196.981H197.784H198.589H199.396H200.205H201.017H201.83H202.645H203.461H204.28H205.101H205.924H206.748H207.575H208.403H209.233H210.065H210.898H211.734H212.571H213.41H214.251H215.093H215.937H216.783H217.63H218.48H219.331H220.183H221.037H221.893H222.75H223.609H224.47H225.332H226.195H227.06H227.927H228.795H229.665H230.536H231.408H232.283H233.158H234.035H234.913H235.793H236.674H237.556H238.44H239.325H240.211H241.099H241.988H242.878H243.769H244.662H245.556H246.451H247.347H248.245H249.144H250.043H250.944H251.846H252.75H253.654H254.559H255.466H256.373H257.282H258.192H259.102H260.014H260.927H261.84H262.755H263.67H264.586H265.504H266.422H267.341H268.261H269.182H270.104H271.026H271.949H272.873H273.798H274.724H275.65H276.578H277.505H278.434H279.363H280.293H281.224H282.155H283.087H284.02H284.953H285.887H286.821H287.756H288.692H289.628H290.564H291.501H292.439H293.377H294.315H295.254H296.194H297.134H298.074H299.015H299.956H300.897H301.839H302.781H303.723H304.666H305.609H306.553H307.496H308.44H309.384H310.328H311.273H312.218H313.163H314.108H315.053H315.998H316.944H317.889H318.835H319.781H320.727H321.673H322.619H323.565H324.511H325.457H326.403H327.348H328.294H329.24H330.186H331.132H332.077H333.023H333.968H334.913H335.858H336.803H337.748H338.692H339.636H340.58H341.524H342.468H343.411H344.354H345.297H346.239H347.181H348.122H349.064H350.005H350.945H351.885H352.825H353.764H354.703H355.641H356.579H357.517H358.454H359.39H360.326H361.261H362.196H363.13H364.063H364.996H365.929H366.86H367.792H368.722H369.652H370.581H371.509H372.437H373.364H374.29H375.215H376.14H377.063H377.986H378.909H379.83H380.751H381.67H382.589H383.507H384.424H385.34H386.255H387.169H388.082H388.995H389.906H390.816H391.725H392.634H393.541H394.447H395.352H396.256H397.159H398.06H398.961H399.86H400.759H401.656H402.552H403.446H404.34H405.232H406.123H407.013H407.901H408.788H409.674H410.559H411.442H412.324H413.204H414.083H414.961H415.837H416.712H417.586H418.458H419.328H420.197H421.065H421.931H422.796H423.659H424.52H425.38H426.238H427.095H427.95H428.804H429.656H430.506H431.355H432.201H433.047H433.89H434.732H435.572H436.41H437.247H438.082H438.915H439.746H440.575H441.403H442.228H443.052H443.874H444.694H445.512H446.328H447.143H447.955H448.765H449.574H450.38H451.185H451.987H452.787H453.586H454.382H455.176H455.968H456.758H457.546H458.331H459.115H459.896H460.676H461.453H462.227H463H463.77H464.538H465.304H466.068H466.829H467.588H468.345H469.099H469.851H470.601H471.348H472.093H472.835H473.575H474.312H475.048H475.78H476.51H477.238H477.963H478.686H479.406H480.124H480.839H481.551H482.261H482.968H483.673H484.375H485.074H485.771H486.465H487.156H487.844H488.53H489.213H489.894H490.571H491.246H491.918H492.587H493.254H493.917H494.578H495.236H495.891H496.543H497.192H497.838H498.482H499.122H499.759H500.394H501.025H501.654H502.279H502.901H503.521H504.137H504.75H505.36H505.967H506.571H507.172H507.769H508.364H508.955H509.543H510.128H510.709H511.288H511.863H512.434H513.003H513.568H514.13H514.689H515.244H515.796H516.345H516.89H517.432H517.97H518.505H519.036H519.565H520.089H520.61C532.643 312 542.1 308.635 548.874 302.041C555.574 295.52 559.032 286.44 560.349 276.2C562.96 255.905 557.417 229.028 548.771 201.576C535.041 157.978 512.736 110.79 499.232 82.2207C495.673 74.6902 492.725 68.4532 490.706 63.9165C480.075 40.0211 457.689 26.4445 438.748 18.876C429.198 15.0599 420.305 12.6819 413.802 11.256C410.546 10.5419 407.875 10.0637 406.005 9.76237C405.07 9.61164 404.333 9.50498 403.822 9.43506C403.567 9.4001 403.368 9.37431 403.229 9.35678C403.159 9.34802 403.104 9.34132 403.065 9.33657L403.017 9.33089L403.002 9.32912L402.997 9.3285C402.995 9.32826 402.993 9.32805 402.42 14.2952ZM402.42 14.2952L401.923 9.31993L402.459 9.26646L402.993 9.32805L402.42 14.2952Z" fill="#D9D9D9" stroke="black" stroke-width="10"/>
<path d="M151.267 65.949C175.89 6.91605 234.985 14.2952 234.985 14.2952C234.985 14.2952 308.854 21.6743 318.703 21.6743C328.552 21.6744 402.421 14.2952 402.421 14.2952C402.421 14.2952 466.44 21.6743 486.138 65.949C505.837 110.224 592.5 248 475.5 183.5C358.5 119 248.267 129.5 157 183.5C65.7327 237.5 126.644 124.982 151.267 65.949Z" fill="#AE8D76"/>
<path d="M96.6884 10.1321C99.368 7.45748 103.136 5.90549 108.018 5.29635C112.932 4.6832 118.607 5.07512 124.617 5.97508C129.54 6.71216 134.448 7.74829 139.185 8.74828C140.231 8.96929 141.27 9.18854 142.298 9.4024C147.768 10.5397 153.238 11.5933 157.559 11.5933C161.765 11.5933 166.174 10.8984 170.389 10.1192C171.679 9.88075 172.944 9.6361 174.194 9.39428C177.176 8.81739 180.075 8.25665 183.036 7.83451C191.398 6.64216 198.489 6.86911 204.33 10.7559C207.236 12.6897 208.839 14.8436 209.549 17.4763C210.301 20.2621 210.214 24.1899 208.505 29.879C205.045 41.3899 195.579 58.1127 178.236 82.8421C161.022 107.388 146.527 122.951 135.4 131.135C129.814 135.243 125.421 137.234 122.22 137.815C119.22 138.36 117.589 137.651 116.505 136.569C116.297 136.361 116.112 136.173 115.948 136.002C116.209 135.622 116.483 135.188 116.747 134.7C119.73 129.206 120.187 119.874 112.73 98.8748C111.674 95.901 110.623 92.9616 109.585 90.061C103.252 72.3592 97.4369 56.1064 94.317 42.3337C92.5072 34.3441 91.6931 27.5396 92.1045 22.0179C92.5124 16.5441 94.087 12.7288 96.6884 10.1321Z" fill="#AE8D76" stroke="black" stroke-width="10"/>
<path d="M545.312 12.1321C542.632 9.45748 538.864 7.90549 533.982 7.29635C529.068 6.6832 523.393 7.07512 517.383 7.97508C512.46 8.71216 507.552 9.74829 502.815 10.7483C501.769 10.9693 500.73 11.1885 499.702 11.4024C494.232 12.5397 488.762 13.5933 484.441 13.5933C480.235 13.5933 475.826 12.8984 471.611 12.1192C470.321 11.8808 469.056 11.6361 467.806 11.3943C464.824 10.8174 461.925 10.2566 458.964 9.83451C450.602 8.64216 443.511 8.86911 437.67 12.7559C434.764 14.6897 433.161 16.8436 432.451 19.4763C431.699 22.2621 431.786 26.1899 433.495 31.879C436.955 43.3899 446.421 60.1127 463.764 84.8421C480.978 109.388 495.473 124.951 506.6 133.135C512.186 137.243 516.579 139.234 519.78 139.815C522.78 140.36 524.411 139.651 525.495 138.569C525.703 138.361 525.888 138.173 526.052 138.002C525.791 137.622 525.517 137.188 525.253 136.7C522.27 131.206 521.813 121.874 529.27 100.875C530.326 97.901 531.377 94.9616 532.415 92.061C538.748 74.3592 544.563 58.1064 547.683 44.3337C549.493 36.3441 550.307 29.5396 549.895 24.0179C549.488 18.5441 547.913 14.7288 545.312 12.1321Z" fill="#AE8D76" stroke="black" stroke-width="10"/>
<circle cx="235.5" cy="105.5" r="24.5" fill="black"/>
<circle cx="402.5" cy="105.5" r="24.5" fill="black"/>
<path d="M211 198.842C211 198.842 240.455 228.526 269.909 208.737C299.364 188.947 319 184 319 184C319 184 348.455 188.947 363.182 208.737C377.909 228.526 427 198.842 427 198.842C427 198.842 417.182 228.526 407.364 228.526C397.545 228.526 412.273 243.368 402.455 258.211C392.636 273.053 373 278 373 278H319H265C265 278 245.364 273.053 235.545 258.211C225.727 243.368 240.455 223.579 230.636 223.579C220.818 223.579 211 198.842 211 198.842Z" fill="black"/>
<path d="M279.538 243H276.989L275.491 245.064L279.538 248C275.491 245.064 275.49 245.066 275.489 245.068L275.485 245.073L275.475 245.086L275.445 245.129C275.42 245.163 275.386 245.211 275.343 245.272C275.257 245.394 275.136 245.567 274.983 245.789C274.678 246.233 274.246 246.875 273.717 247.697C272.659 249.338 271.209 251.702 269.602 254.642C266.398 260.503 262.519 268.751 259.92 278.198C254.722 297.086 254.49 321.69 276.241 340.77L276.543 341.035L276.884 341.248L279.538 337.011C276.884 341.248 276.886 341.249 276.888 341.251L276.893 341.254L276.906 341.262L276.943 341.285C276.972 341.303 277.011 341.327 277.059 341.356C277.156 341.415 277.291 341.496 277.463 341.596C277.806 341.797 278.297 342.078 278.925 342.419C280.181 343.101 281.992 344.028 284.278 345.052C288.844 347.095 295.355 349.543 303.18 351.177C318.851 354.45 339.993 354.483 361.116 341.248C383.829 327.017 383.145 301.577 378.102 281.987C375.527 271.985 371.686 262.856 368.517 256.265C366.927 252.958 365.494 250.263 364.452 248.385C363.931 247.445 363.507 246.709 363.209 246.2C363.06 245.946 362.943 245.749 362.861 245.612C362.819 245.543 362.787 245.49 362.764 245.452L362.736 245.406L362.728 245.392L362.725 245.388C362.724 245.386 362.723 245.384 358.462 248L362.723 245.384L361.259 243H358.462H279.538Z" fill="#F77171" stroke="black" stroke-width="10"/>
<path d="M288.641 117.347C313.107 107.551 322.893 107.551 347.359 117.347C371.824 127.143 337.572 161.429 327.786 166.327C318 171.224 318 171.224 308.214 166.327C298.427 161.429 264.176 127.143 288.641 117.347Z" fill="black"/>
<path d="M314.551 159H324.449C324.449 159 319.5 184.185 329.398 189.222C339.295 194.259 299.705 194.259 309.602 189.222C319.5 184.185 314.551 159 314.551 159Z" fill="black"/>
<path d="M68.9554 343.646C70.3503 342.29 71.5933 340.978 72.6525 339.802C73.4361 340.596 74.3275 341.421 75.3221 342.224C79.6853 345.748 86.6108 349.26 95.1393 346.895C103.668 344.53 107.795 337.952 109.72 332.685C110.287 331.136 110.687 329.644 110.971 328.311C112.869 328.588 115.178 328.88 117.722 329.108C124.39 329.707 133.272 329.931 140.554 327.912C143.846 326.999 146.142 324.534 147.692 322.08C149.284 319.56 150.484 316.441 151.378 313.108C153.172 306.418 153.963 297.993 153.659 289.503C153.354 281.012 151.943 272.126 149.107 264.56C146.317 257.114 141.84 250.159 134.87 246.813C131.401 245.147 127.035 244.342 122.386 244.036C117.663 243.725 112.274 243.91 106.529 244.472C95.0358 245.597 81.7387 248.271 68.7845 251.863C55.8304 255.456 43.0553 260.012 32.6247 264.967C27.4109 267.444 22.6961 270.062 18.8075 272.761C14.9806 275.417 11.653 278.356 9.53722 281.57C5.2075 288.147 5.28184 296.633 7.07548 304.566C8.90534 312.66 12.7407 321.193 17.3032 328.809C21.868 336.429 27.3315 343.414 32.6329 348.345C35.273 350.8 38.0312 352.894 40.761 354.262C43.3855 355.578 46.697 356.575 50.0295 355.651C57.6437 353.539 64.3834 348.09 68.9554 343.646Z" fill="#D9D9D9" stroke="black" stroke-width="10"/>
<path d="M578.045 343.646C576.65 342.29 575.407 340.978 574.348 339.802C573.564 340.596 572.672 341.421 571.678 342.224C567.315 345.748 560.389 349.26 551.861 346.895C543.332 344.53 539.205 337.952 537.28 332.685C536.713 331.136 536.313 329.644 536.029 328.311C534.131 328.588 531.822 328.88 529.278 329.108C522.61 329.707 513.728 329.931 506.446 327.912C503.154 326.999 500.858 324.534 499.308 322.08C497.716 319.56 496.516 316.441 495.622 313.108C493.828 306.418 493.037 297.993 493.341 289.503C493.646 281.012 495.057 272.126 497.893 264.56C500.683 257.114 505.16 250.159 512.13 246.813C515.599 245.147 519.965 244.342 524.614 244.036C529.337 243.725 534.726 243.91 540.471 244.472C551.964 245.597 565.261 248.271 578.215 251.863C591.17 255.456 603.945 260.012 614.375 264.967C619.589 267.444 624.304 270.062 628.193 272.761C632.019 275.417 635.347 278.356 637.463 281.57C641.792 288.147 641.718 296.633 639.925 304.566C638.095 312.66 634.259 321.193 629.697 328.809C625.132 336.429 619.669 343.414 614.367 348.345C611.727 350.8 608.969 352.894 606.239 354.262C603.615 355.578 600.303 356.575 596.97 355.651C589.356 353.539 582.617 348.09 578.045 343.646Z" fill="#D9D9D9" stroke="black" stroke-width="10"/>
</svg>
